<svg xmlns="http://www.w3.org/2000/svg" width="26.441" height="30.219" viewBox="0 0 26.441 30.219">
  <path id="Icon_awesome-calendar-alt" data-name="Icon awesome-calendar-alt" d="M0,27.386a2.834,2.834,0,0,0,2.833,2.833H23.608a2.834,2.834,0,0,0,2.833-2.833V11.332H0ZM18.887,15.818a.71.71,0,0,1,.708-.708h2.361a.71.71,0,0,1,.708.708v2.361a.71.71,0,0,1-.708.708H19.595a.71.71,0,0,1-.708-.708Zm0,7.555a.71.71,0,0,1,.708-.708h2.361a.71.71,0,0,1,.708.708v2.361a.71.71,0,0,1-.708.708H19.595a.71.71,0,0,1-.708-.708Zm-7.555-7.555a.71.71,0,0,1,.708-.708H14.4a.71.71,0,0,1,.708.708v2.361a.71.71,0,0,1-.708.708H12.04a.71.71,0,0,1-.708-.708Zm0,7.555a.71.71,0,0,1,.708-.708H14.4a.71.71,0,0,1,.708.708v2.361a.71.71,0,0,1-.708.708H12.04a.71.71,0,0,1-.708-.708ZM3.777,15.818a.71.71,0,0,1,.708-.708H6.846a.71.71,0,0,1,.708.708v2.361a.71.71,0,0,1-.708.708H4.486a.71.71,0,0,1-.708-.708Zm0,7.555a.71.71,0,0,1,.708-.708H6.846a.71.71,0,0,1,.708.708v2.361a.71.71,0,0,1-.708.708H4.486a.71.71,0,0,1-.708-.708ZM23.608,3.777H20.775V.944A.947.947,0,0,0,19.831,0H17.942A.947.947,0,0,0,17,.944V3.777H9.443V.944A.947.947,0,0,0,8.5,0H6.61a.947.947,0,0,0-.944.944V3.777H2.833A2.834,2.834,0,0,0,0,6.61V9.443H26.441V6.61A2.834,2.834,0,0,0,23.608,3.777Z" fill="#fafafa"/>
</svg>
