<svg xmlns="http://www.w3.org/2000/svg" width="19.512" height="19.512" viewBox="0 0 19.512 19.512">
  <path id="Icon_metro-cross" data-name="Icon metro-cross" d="M21.9,17.6h0l-5.919-5.919L21.9,5.765h0a.611.611,0,0,0,0-.862l-2.8-2.8a.611.611,0,0,0-.862,0h0L12.327,8.025,6.407,2.106h0a.611.611,0,0,0-.862,0l-2.8,2.8a.611.611,0,0,0,0,.862h0l5.919,5.919L2.749,17.6h0a.611.611,0,0,0,0,.862l2.8,2.8a.611.611,0,0,0,.862,0h0l5.919-5.919,5.919,5.919h0a.611.611,0,0,0,.862,0l2.8-2.8a.611.611,0,0,0,0-.862Z" transform="translate(-2.571 -1.928)" fill="#fafafa"/>
</svg>
